<svg width="728" height="764" viewBox="0 0 728 764" fill="none" xmlns="http://www.w3.org/2000/svg">
<rect x="55" y="34.3336" width="608" height="686" rx="30" fill="#221514"/>
<path d="M650.614 40.8621L669.431 57.1233C670.122 57.7207 669.717 58.8559 668.803 58.8796L662.494 59.0433C662.343 59.0472 662.194 59.017 662.056 58.9551L643.887 50.755C643.319 50.4985 643.121 49.7901 643.475 49.2765L649.136 41.0517C649.474 40.561 650.163 40.4726 650.614 40.8621Z" fill="#221514" stroke="#221514"/>
<path d="M64.4202 711.373L85.609 730.207C86.0047 730.559 86.6061 730.541 86.9805 730.167L90.0988 727.048C90.4924 726.655 90.4889 726.016 90.091 725.626L68.739 704.739C68.2709 704.281 67.4964 704.389 67.1715 704.957L64.2163 710.129C63.9817 710.54 64.0667 711.058 64.4202 711.373Z" fill="#221514" stroke="#221514"/>
<rect x="74" y="48.3336" width="604" height="688" rx="31" fill="#F3F3F3" stroke="#221514" stroke-width="2"/>
<path d="M17.8681 28.0304C16.3987 37.4508 10.1135 41.208 2.12453 39.9619C10.1135 41.208 14.8805 47.1834 13.5527 55.6958C14.8805 47.1834 20.6703 42.8548 28.8019 44.1232C20.5847 42.8414 16.4075 37.3941 17.8681 28.0304Z" fill="#221514"/>
<path d="M724.095 48.4188C714.834 50.6889 708.947 46.3344 707.022 38.4813C708.947 46.3344 705.268 53.0342 696.9 55.0855C705.268 53.0342 711.491 56.7116 713.451 64.7048C711.471 56.6274 714.89 50.6752 724.095 48.4188Z" fill="#221514"/>
<path d="M685.815 9.86824C678.87 11.5708 674.467 8.35553 673.041 2.53846C674.467 8.35553 671.695 13.3298 665.419 14.8682C671.695 13.3298 676.352 16.0424 677.803 21.9633C676.336 15.98 678.912 11.5605 685.815 9.86824Z" fill="#221514"/>
<path d="M39.4464 712.228C33.8242 713.606 30.2694 711.042 29.1285 706.388C30.2694 711.042 28.0157 715.03 22.9353 716.276C28.0157 715.03 31.7769 717.192 32.9381 721.928C31.7647 717.142 33.8581 713.598 39.4464 712.228Z" fill="#221514"/>
<path d="M715.184 737.176C706.916 739.202 701.665 735.336 699.954 728.356C701.665 735.336 698.374 741.297 690.903 743.128C698.374 741.297 703.926 744.56 705.668 751.666C703.908 744.486 706.966 739.19 715.184 737.176Z" fill="#221514"/>
<path d="M57.6195 741.821C56.5699 748.55 52.1394 751.243 46.5175 750.366C52.1394 751.243 55.4855 755.502 54.5371 761.582C55.4855 755.502 59.5683 752.402 65.2905 753.294C59.508 752.392 56.5762 748.51 57.6195 741.821Z" fill="#221514"/>
</svg>
