<svg width="1361" height="762" viewBox="0 0 1361 762" fill="none" xmlns="http://www.w3.org/2000/svg">
<rect x="55.0001" y="40.9999" width="1220" height="686" rx="30" fill="#221514"/>
<path d="M1258.94 45.1056L1279.83 58.5983C1280.6 59.0939 1280.35 60.2745 1279.45 60.4247L1273.23 61.4623C1273.08 61.4871 1272.93 61.478 1272.78 61.4357L1253.65 55.8362C1253.05 55.661 1252.76 54.9869 1253.04 54.4292L1257.5 45.4984C1257.77 44.9656 1258.44 44.7824 1258.94 45.1056Z" fill="#221514" stroke="#221514"/>
<path d="M64.6065 718.039L85.7953 736.874C86.191 737.225 86.7924 737.208 87.1668 736.833L90.2851 733.715C90.6787 733.321 90.6752 732.682 90.2773 732.293L68.9253 711.405C68.4573 710.947 67.6827 711.055 67.3578 711.624L64.4026 716.796C64.168 717.206 64.253 717.725 64.6065 718.039Z" fill="#221514" stroke="#221514"/>
<rect x="74" y="54.9999" width="1222" height="688" rx="31" fill="#F3F3F3" stroke="#221514" stroke-width="2"/>
<path d="M18.0545 34.6969C16.585 44.1173 10.2999 47.8746 2.3109 46.6284C10.2999 47.8746 15.0669 53.8499 13.7391 62.3623C15.0669 53.8499 20.8567 49.5213 28.9883 50.7897C20.7711 49.5079 16.5939 44.0606 18.0545 34.6969Z" fill="#221514"/>
<path d="M1348 55.0853C1338.74 57.3553 1332.85 53.0008 1330.93 45.1478C1332.85 53.0008 1329.17 59.7006 1320.8 61.7519C1329.17 59.7006 1335.4 63.378 1337.35 71.3713C1335.37 63.2939 1338.79 57.3417 1348 55.0853Z" fill="#221514"/>
<path d="M1309.72 16.5347C1302.77 18.2372 1298.37 15.022 1296.95 9.20491C1298.37 15.022 1295.6 19.9962 1289.32 21.5347C1295.6 19.9962 1300.26 22.7088 1301.71 28.6297C1300.24 22.6465 1302.82 18.227 1309.72 16.5347Z" fill="#221514"/>
<path d="M1338.91 102.01C1333.29 103.389 1329.73 100.824 1328.59 96.1708C1329.73 100.824 1327.48 104.813 1322.4 106.058C1327.48 104.813 1331.24 106.974 1332.4 111.711C1331.23 106.924 1333.32 103.38 1338.91 102.01Z" fill="#221514"/>
<path d="M1358.18 743.842C1349.92 745.869 1344.67 742.003 1342.95 735.022C1344.67 742.003 1341.37 747.963 1333.9 749.795C1341.37 747.963 1346.93 751.227 1348.67 758.332C1346.91 751.152 1349.97 745.857 1358.18 743.842Z" fill="#221514"/>
<path d="M46.4188 1.6739C45.3692 8.40278 40.9387 11.0957 35.3168 10.2188C40.9387 11.0957 44.2848 15.3546 43.3364 21.4349C44.2848 15.3546 48.3675 12.2545 54.0898 13.1471C48.3073 12.2451 45.3755 8.36225 46.4188 1.6739Z" fill="#221514"/>
</svg>
